<svg xmlns="http://www.w3.org/2000/svg" width="512" height="512" viewBox="0 0 512 512">
  <!-- Background -->
  <defs>
    <linearGradient id="bgGradient" x1="0%" y1="0%" x2="100%" y2="100%">
      <stop offset="0%" stop-color="#1a56db" />
      <stop offset="100%" stop-color="#3b82f6" />
    </linearGradient>
    <filter id="shadow" x="-20%" y="-20%" width="140%" height="140%">
      <feGaussianBlur in="SourceAlpha" stdDeviation="8" />
      <feOffset dx="0" dy="4" result="offsetblur" />
      <feComponentTransfer>
        <feFuncA type="linear" slope="0.3" />
      </feComponentTransfer>
      <feMerge>
        <feMergeNode />
        <feMergeNode in="SourceGraphic" />
      </feMerge>
    </filter>
  </defs>

  <!-- Main circular background -->
  <circle cx="256" cy="256" r="240" fill="url(#bgGradient)" />

  <!-- Decorative seismic wave background -->
  <g fill="none" stroke="rgba(255, 255, 255, 0.25)" stroke-width="6" stroke-linecap="round">
    <path d="M116,256 C148,226 164,286 196,256 C228,226 244,286 276,256 C308,226 324,286 356,256 C388,226 404,286 436,256" />
    <path d="M116,306 C148,276 164,336 196,306 C228,276 244,336 276,306 C308,276 324,336 356,306 C388,276 404,336 436,306" />
    <path d="M116,206 C148,176 164,236 196,206 C228,176 244,236 276,206 C308,176 324,236 356,206 C388,176 404,236 436,206" />
  </g>

  <!-- Main icon - epicenter with seismic waves -->
  <g filter="url(#shadow)">
    <!-- Inner epicenter -->
    <circle cx="256" cy="256" r="80" fill="white" />
    
    <!-- Concentric seismic waves -->
    <circle cx="256" cy="256" r="120" fill="none" stroke="white" stroke-width="10" stroke-dasharray="20,10" />
    <circle cx="256" cy="256" r="160" fill="none" stroke="white" stroke-width="8" stroke-dasharray="15,12" />
    <circle cx="256" cy="256" r="200" fill="none" stroke="white" stroke-width="6" stroke-dasharray="10,15" />
    
    <!-- Compass points for orientation -->
    <line x1="256" y1="131" x2="256" y2="156" stroke="#1a56db" stroke-width="12" stroke-linecap="round" />
    <line x1="256" y1="356" x2="256" y2="381" stroke="#1a56db" stroke-width="12" stroke-linecap="round" />
    <line x1="131" y1="256" x2="156" y2="256" stroke="#1a56db" stroke-width="12" stroke-linecap="round" />
    <line x1="356" y1="256" x2="381" y2="256" stroke="#1a56db" stroke-width="12" stroke-linecap="round" />
  </g>

  <!-- Central earthquake symbol -->
  <g transform="translate(216, 216)">
    <path d="M0,0 L20,40 L40,0 L60,40 L80,0" fill="none" stroke="#1a56db" stroke-width="15" stroke-linecap="round" stroke-linejoin="round" />
  </g>
</svg> 